<svg id="Layer_1" data-name="Layer 1" xmlns="http://www.w3.org/2000/svg" viewBox="0 0 2160 2160"><defs><style>.cls-1{fill:#e2004b;}</style></defs><title>Icon - Red</title><path class="cls-1" d="M489.48,623.1v437.57l-307.94-308A715.86,715.86,0,0,1,317,450.62Z"/><path class="cls-1" d="M1080,1991.12H883.12c-393.34-2.5-711.73-320.89-714.23-714.23,0-.78,0-1.57,0-2.35V1080Z"/><path class="cls-1" d="M1991.12,1080v194.53c0,.78,0,1.57,0,2.35-2.5,393.34-320.89,711.73-714.23,714.23H1080Z"/><polygon class="cls-1" points="1430.15 863.46 1430.15 1301.03 1080 1651.18 729.85 1301.03 729.85 863.46 1080 1213.61 1430.15 863.46"/><path class="cls-1" d="M1666.88,286.79,1080,873.67,493.12,286.8A714.55,714.55,0,0,1,807.26,173.34L1080,446.08l272.73-272.74A714.58,714.58,0,0,1,1666.88,286.79Z"/><path class="cls-1" d="M1978.46,752.72l-308,308V623.1L1843,450.62A715.86,715.86,0,0,1,1978.46,752.72Z"/></svg>